#define info_width 25
#define info_height 17
static char info_bits[] = {
  0x00, 0x00, 0x00, 0x00, 0x00, 0x00, 0x00, 0x00, 0x80, 0xff, 0x1f, 0x00, 
  0xc0, 0x03, 0x3e, 0x00, 0x20, 0x00, 0x70, 0x00, 0xc0, 0x01, 0x3c, 0x00, 
  0x00, 0x80, 0x07, 0x00, 0x00, 0x70, 0x00, 0x00, 0x00, 0x0c, 0x00, 0x00, 
  0x00, 0x04, 0x00, 0x00, 0x00, 0x00, 0x00, 0x00, 0x00, 0x0c, 0x00, 0x00, 
  0x00, 0x0e, 0x00, 0x00, 0x00, 0x00, 0x00, 0x00, 0x00, 0x00, 0x00, 0x00, 
  0x00, 0x00, 0x00, 0x00, 0x00, 0x00, 0x00, 0x00, };
