/* XPM */
static char * info_xpm[] = {
"25 17 3 1",
" 	c None",
".	c #000000",
"+	c #FFFFFF",
"+++++++++++++++++++++++++",
"+++++++++++++++++++++++++",
"+++++++..............++++",
"++++++....+++++++.....+++",
"+++++.++++++++++++++...++",
"++++++...+++++++++....+++",
"+++++++++++++++....++++++",
"++++++++++++...++++++++++",
"++++++++++..+++++++++++++",
"++++++++++.++++++++++++++",
"+++++++++++++++++++++++++",
"++++++++++..+++++++++++++",
"+++++++++...+++++++++++++",
"+++++++++++++++++++++++++",
"+++++++++++++++++++++++++",
"+++++++++++++++++++++++++",
"+++++++++++++++++++++++++"};
